<?xml version="1.0" encoding="UTF-8" standalone="no"?>
<!DOCTYPE svg PUBLIC "-//W3C//DTD SVG 1.1//EN"
 "http://www.w3.org/Graphics/SVG/1.1/DTD/svg11.dtd">
<!-- Generated by graphviz version 2.46.0 (20210118.1747)
 -->
<!-- Pages: 1 -->
<svg width="937pt" height="1196pt"
 viewBox="0.00 0.00 936.79 1196.00" xmlns="http://www.w3.org/2000/svg" xmlns:xlink="http://www.w3.org/1999/xlink">
<g id="graph0" class="graph" transform="scale(1 1) rotate(0) translate(4 1192)">
<polygon fill="white" stroke="transparent" points="-4,4 -4,-1192 932.79,-1192 932.79,4 -4,4"/>
<!-- 0 -->
<g id="node1" class="node">
<title>0</title>
<ellipse fill="none" stroke="black" cx="401.39" cy="-1170" rx="41.69" ry="18"/>
<text text-anchor="middle" x="401.39" y="-1166.3" font-family="Times New Roman,serif" font-size="14.00">program</text>
</g>
<!-- 1 -->
<g id="node2" class="node">
<title>1</title>
<ellipse fill="none" stroke="black" cx="262.39" cy="-1098" rx="44.69" ry="18"/>
<text text-anchor="middle" x="262.39" y="-1094.3" font-family="Times New Roman,serif" font-size="14.00">statement</text>
</g>
<!-- 0&#45;&gt;1 -->
<g id="edge31" class="edge">
<title>0&#45;&gt;1</title>
<path fill="none" stroke="black" d="M375.25,-1155.83C353.59,-1144.93 322.57,-1129.31 298.53,-1117.2"/>
<polygon fill="black" stroke="black" points="299.87,-1113.96 289.37,-1112.58 296.73,-1120.21 299.87,-1113.96"/>
</g>
<!-- 32 -->
<g id="node33" class="node">
<title>32</title>
<ellipse fill="none" stroke="black" cx="401.39" cy="-1098" rx="44.69" ry="18"/>
<text text-anchor="middle" x="401.39" y="-1094.3" font-family="Times New Roman,serif" font-size="14.00">statement</text>
</g>
<!-- 0&#45;&gt;32 -->
<g id="edge62" class="edge">
<title>0&#45;&gt;32</title>
<path fill="none" stroke="black" d="M401.39,-1151.7C401.39,-1143.98 401.39,-1134.71 401.39,-1126.11"/>
<polygon fill="black" stroke="black" points="404.89,-1126.1 401.39,-1116.1 397.89,-1126.1 404.89,-1126.1"/>
</g>
<!-- 63 -->
<g id="node64" class="node">
<title>63</title>
<ellipse fill="none" stroke="black" cx="507.39" cy="-1098" rx="42.79" ry="18"/>
<text text-anchor="middle" x="507.39" y="-1094.3" font-family="Times New Roman,serif" font-size="14.00">&#39;&lt;EOF&gt;&#39;</text>
</g>
<!-- 0&#45;&gt;63 -->
<g id="edge63" class="edge">
<title>0&#45;&gt;63</title>
<path fill="none" stroke="black" d="M423.36,-1154.5C438.85,-1144.27 459.8,-1130.43 476.91,-1119.13"/>
<polygon fill="black" stroke="black" points="479.04,-1121.92 485.46,-1113.49 475.18,-1116.08 479.04,-1121.92"/>
</g>
<!-- 2 -->
<g id="node3" class="node">
<title>2</title>
<ellipse fill="none" stroke="black" cx="201.39" cy="-1026" rx="79.09" ry="18"/>
<text text-anchor="middle" x="201.39" y="-1022.3" font-family="Times New Roman,serif" font-size="14.00">variableDeclaration</text>
</g>
<!-- 1&#45;&gt;2 -->
<g id="edge30" class="edge">
<title>1&#45;&gt;2</title>
<path fill="none" stroke="black" d="M248.25,-1080.76C240.77,-1072.18 231.42,-1061.46 223.06,-1051.86"/>
<polygon fill="black" stroke="black" points="225.52,-1049.36 216.32,-1044.12 220.25,-1053.96 225.52,-1049.36"/>
</g>
<!-- 3 -->
<g id="node4" class="node">
<title>3</title>
<ellipse fill="none" stroke="black" cx="42.39" cy="-954" rx="27" ry="18"/>
<text text-anchor="middle" x="42.39" y="-950.3" font-family="Times New Roman,serif" font-size="14.00">&#39;let&#39;</text>
</g>
<!-- 2&#45;&gt;3 -->
<g id="edge1" class="edge">
<title>2&#45;&gt;3</title>
<path fill="none" stroke="black" d="M165.46,-1009.9C140.85,-999.47 107.53,-985.15 78.39,-972 76.6,-971.19 74.76,-970.35 72.9,-969.49"/>
<polygon fill="black" stroke="black" points="74.2,-966.24 63.66,-965.19 71.24,-972.58 74.2,-966.24"/>
</g>
<!-- 4 -->
<g id="node5" class="node">
<title>4</title>
<ellipse fill="none" stroke="black" cx="114.39" cy="-954" rx="27" ry="18"/>
<text text-anchor="middle" x="114.39" y="-950.3" font-family="Times New Roman,serif" font-size="14.00">&#39;a&#39;</text>
</g>
<!-- 2&#45;&gt;4 -->
<g id="edge2" class="edge">
<title>2&#45;&gt;4</title>
<path fill="none" stroke="black" d="M180.78,-1008.41C168.21,-998.3 152.08,-985.32 138.87,-974.69"/>
<polygon fill="black" stroke="black" points="141.06,-971.96 131.08,-968.42 136.67,-977.42 141.06,-971.96"/>
</g>
<!-- 5 -->
<g id="node6" class="node">
<title>5</title>
<ellipse fill="none" stroke="black" cx="201.39" cy="-954" rx="42.49" ry="18"/>
<text text-anchor="middle" x="201.39" y="-950.3" font-family="Times New Roman,serif" font-size="14.00">initializer</text>
</g>
<!-- 2&#45;&gt;5 -->
<g id="edge28" class="edge">
<title>2&#45;&gt;5</title>
<path fill="none" stroke="black" d="M201.39,-1007.7C201.39,-999.98 201.39,-990.71 201.39,-982.11"/>
<polygon fill="black" stroke="black" points="204.89,-982.1 201.39,-972.1 197.89,-982.1 204.89,-982.1"/>
</g>
<!-- 31 -->
<g id="node32" class="node">
<title>31</title>
<ellipse fill="none" stroke="black" cx="288.39" cy="-954" rx="27" ry="18"/>
<text text-anchor="middle" x="288.39" y="-950.3" font-family="Times New Roman,serif" font-size="14.00">&#39;;&#39;</text>
</g>
<!-- 2&#45;&gt;31 -->
<g id="edge29" class="edge">
<title>2&#45;&gt;31</title>
<path fill="none" stroke="black" d="M222.01,-1008.41C234.58,-998.3 250.71,-985.32 263.92,-974.69"/>
<polygon fill="black" stroke="black" points="266.11,-977.42 271.71,-968.42 261.73,-971.96 266.11,-977.42"/>
</g>
<!-- 6 -->
<g id="node7" class="node">
<title>6</title>
<ellipse fill="none" stroke="black" cx="106.39" cy="-882" rx="27" ry="18"/>
<text text-anchor="middle" x="106.39" y="-878.3" font-family="Times New Roman,serif" font-size="14.00">&#39;=&#39;</text>
</g>
<!-- 5&#45;&gt;6 -->
<g id="edge3" class="edge">
<title>5&#45;&gt;6</title>
<path fill="none" stroke="black" d="M181.25,-938.15C166.91,-927.59 147.53,-913.31 132.08,-901.92"/>
<polygon fill="black" stroke="black" points="134.08,-899.06 123.96,-895.94 129.93,-904.69 134.08,-899.06"/>
</g>
<!-- 7 -->
<g id="node8" class="node">
<title>7</title>
<ellipse fill="none" stroke="black" cx="201.39" cy="-882" rx="50.09" ry="18"/>
<text text-anchor="middle" x="201.39" y="-878.3" font-family="Times New Roman,serif" font-size="14.00">expression</text>
</g>
<!-- 5&#45;&gt;7 -->
<g id="edge27" class="edge">
<title>5&#45;&gt;7</title>
<path fill="none" stroke="black" d="M201.39,-935.7C201.39,-927.98 201.39,-918.71 201.39,-910.11"/>
<polygon fill="black" stroke="black" points="204.89,-910.1 201.39,-900.1 197.89,-910.1 204.89,-910.1"/>
</g>
<!-- 8 -->
<g id="node9" class="node">
<title>8</title>
<ellipse fill="none" stroke="black" cx="201.39" cy="-810" rx="68.49" ry="18"/>
<text text-anchor="middle" x="201.39" y="-806.3" font-family="Times New Roman,serif" font-size="14.00">assignmentExpr</text>
</g>
<!-- 7&#45;&gt;8 -->
<g id="edge26" class="edge">
<title>7&#45;&gt;8</title>
<path fill="none" stroke="black" d="M201.39,-863.7C201.39,-855.98 201.39,-846.71 201.39,-838.11"/>
<polygon fill="black" stroke="black" points="204.89,-838.1 201.39,-828.1 197.89,-838.1 204.89,-838.1"/>
</g>
<!-- 9 -->
<g id="node10" class="node">
<title>9</title>
<ellipse fill="none" stroke="black" cx="201.39" cy="-738" rx="68.49" ry="18"/>
<text text-anchor="middle" x="201.39" y="-734.3" font-family="Times New Roman,serif" font-size="14.00">conditionalExpr</text>
</g>
<!-- 8&#45;&gt;9 -->
<g id="edge25" class="edge">
<title>8&#45;&gt;9</title>
<path fill="none" stroke="black" d="M201.39,-791.7C201.39,-783.98 201.39,-774.71 201.39,-766.11"/>
<polygon fill="black" stroke="black" points="204.89,-766.1 201.39,-756.1 197.89,-766.1 204.89,-766.1"/>
</g>
<!-- 10 -->
<g id="node11" class="node">
<title>10</title>
<ellipse fill="none" stroke="black" cx="201.39" cy="-666" rx="61.99" ry="18"/>
<text text-anchor="middle" x="201.39" y="-662.3" font-family="Times New Roman,serif" font-size="14.00">logicalOrExpr</text>
</g>
<!-- 9&#45;&gt;10 -->
<g id="edge24" class="edge">
<title>9&#45;&gt;10</title>
<path fill="none" stroke="black" d="M201.39,-719.7C201.39,-711.98 201.39,-702.71 201.39,-694.11"/>
<polygon fill="black" stroke="black" points="204.89,-694.1 201.39,-684.1 197.89,-694.1 204.89,-694.1"/>
</g>
<!-- 11 -->
<g id="node12" class="node">
<title>11</title>
<ellipse fill="none" stroke="black" cx="200.39" cy="-594" rx="67.69" ry="18"/>
<text text-anchor="middle" x="200.39" y="-590.3" font-family="Times New Roman,serif" font-size="14.00">logicalAndExpr</text>
</g>
<!-- 10&#45;&gt;11 -->
<g id="edge23" class="edge">
<title>10&#45;&gt;11</title>
<path fill="none" stroke="black" d="M201.15,-647.7C201.04,-639.98 200.9,-630.71 200.78,-622.11"/>
<polygon fill="black" stroke="black" points="204.28,-622.05 200.64,-612.1 197.28,-622.15 204.28,-622.05"/>
</g>
<!-- 12 -->
<g id="node13" class="node">
<title>12</title>
<ellipse fill="none" stroke="black" cx="199.39" cy="-522" rx="55.79" ry="18"/>
<text text-anchor="middle" x="199.39" y="-518.3" font-family="Times New Roman,serif" font-size="14.00">equalityExpr</text>
</g>
<!-- 11&#45;&gt;12 -->
<g id="edge22" class="edge">
<title>11&#45;&gt;12</title>
<path fill="none" stroke="black" d="M200.15,-575.7C200.04,-567.98 199.9,-558.71 199.78,-550.11"/>
<polygon fill="black" stroke="black" points="203.28,-550.05 199.64,-540.1 196.28,-550.15 203.28,-550.05"/>
</g>
<!-- 13 -->
<g id="node14" class="node">
<title>13</title>
<ellipse fill="none" stroke="black" cx="196.39" cy="-450" rx="60.39" ry="18"/>
<text text-anchor="middle" x="196.39" y="-446.3" font-family="Times New Roman,serif" font-size="14.00">relationalExpr</text>
</g>
<!-- 12&#45;&gt;13 -->
<g id="edge21" class="edge">
<title>12&#45;&gt;13</title>
<path fill="none" stroke="black" d="M198.65,-503.7C198.32,-495.98 197.92,-486.71 197.56,-478.11"/>
<polygon fill="black" stroke="black" points="201.05,-477.95 197.13,-468.1 194.06,-478.25 201.05,-477.95"/>
</g>
<!-- 14 -->
<g id="node15" class="node">
<title>14</title>
<ellipse fill="none" stroke="black" cx="195.39" cy="-378" rx="56.59" ry="18"/>
<text text-anchor="middle" x="195.39" y="-374.3" font-family="Times New Roman,serif" font-size="14.00">additiveExpr</text>
</g>
<!-- 13&#45;&gt;14 -->
<g id="edge20" class="edge">
<title>13&#45;&gt;14</title>
<path fill="none" stroke="black" d="M196.15,-431.7C196.04,-423.98 195.9,-414.71 195.78,-406.11"/>
<polygon fill="black" stroke="black" points="199.28,-406.05 195.64,-396.1 192.28,-406.15 199.28,-406.05"/>
</g>
<!-- 15 -->
<g id="node16" class="node">
<title>15</title>
<ellipse fill="none" stroke="black" cx="75.39" cy="-306" rx="75.29" ry="18"/>
<text text-anchor="middle" x="75.39" y="-302.3" font-family="Times New Roman,serif" font-size="14.00">multiplicativeExpr</text>
</g>
<!-- 14&#45;&gt;15 -->
<g id="edge8" class="edge">
<title>14&#45;&gt;15</title>
<path fill="none" stroke="black" d="M169.36,-361.81C152.41,-351.93 130.08,-338.9 111.44,-328.03"/>
<polygon fill="black" stroke="black" points="113.03,-324.9 102.63,-322.89 109.5,-330.95 113.03,-324.9"/>
</g>
<!-- 20 -->
<g id="node21" class="node">
<title>20</title>
<ellipse fill="none" stroke="black" cx="195.39" cy="-306" rx="27" ry="18"/>
<text text-anchor="middle" x="195.39" y="-302.3" font-family="Times New Roman,serif" font-size="14.00">&#39;+&#39;</text>
</g>
<!-- 14&#45;&gt;20 -->
<g id="edge9" class="edge">
<title>14&#45;&gt;20</title>
<path fill="none" stroke="black" d="M195.39,-359.7C195.39,-351.98 195.39,-342.71 195.39,-334.11"/>
<polygon fill="black" stroke="black" points="198.89,-334.1 195.39,-324.1 191.89,-334.1 198.89,-334.1"/>
</g>
<!-- 21 -->
<g id="node22" class="node">
<title>21</title>
<ellipse fill="none" stroke="black" cx="315.39" cy="-306" rx="75.29" ry="18"/>
<text text-anchor="middle" x="315.39" y="-302.3" font-family="Times New Roman,serif" font-size="14.00">multiplicativeExpr</text>
</g>
<!-- 14&#45;&gt;21 -->
<g id="edge19" class="edge">
<title>14&#45;&gt;21</title>
<path fill="none" stroke="black" d="M221.43,-361.81C238.37,-351.93 260.7,-338.9 279.34,-328.03"/>
<polygon fill="black" stroke="black" points="281.28,-330.95 288.16,-322.89 277.76,-324.9 281.28,-330.95"/>
</g>
<!-- 16 -->
<g id="node17" class="node">
<title>16</title>
<ellipse fill="none" stroke="black" cx="75.39" cy="-234" rx="48.19" ry="18"/>
<text text-anchor="middle" x="75.39" y="-230.3" font-family="Times New Roman,serif" font-size="14.00">unaryExpr</text>
</g>
<!-- 15&#45;&gt;16 -->
<g id="edge7" class="edge">
<title>15&#45;&gt;16</title>
<path fill="none" stroke="black" d="M75.39,-287.7C75.39,-279.98 75.39,-270.71 75.39,-262.11"/>
<polygon fill="black" stroke="black" points="78.89,-262.1 75.39,-252.1 71.89,-262.1 78.89,-262.1"/>
</g>
<!-- 17 -->
<g id="node18" class="node">
<title>17</title>
<ellipse fill="none" stroke="black" cx="75.39" cy="-162" rx="55.79" ry="18"/>
<text text-anchor="middle" x="75.39" y="-158.3" font-family="Times New Roman,serif" font-size="14.00">primaryExpr</text>
</g>
<!-- 16&#45;&gt;17 -->
<g id="edge6" class="edge">
<title>16&#45;&gt;17</title>
<path fill="none" stroke="black" d="M75.39,-215.7C75.39,-207.98 75.39,-198.71 75.39,-190.11"/>
<polygon fill="black" stroke="black" points="78.89,-190.1 75.39,-180.1 71.89,-190.1 78.89,-190.1"/>
</g>
<!-- 18 -->
<g id="node19" class="node">
<title>18</title>
<ellipse fill="none" stroke="black" cx="75.39" cy="-90" rx="47.39" ry="18"/>
<text text-anchor="middle" x="75.39" y="-86.3" font-family="Times New Roman,serif" font-size="14.00">literalExpr</text>
</g>
<!-- 17&#45;&gt;18 -->
<g id="edge5" class="edge">
<title>17&#45;&gt;18</title>
<path fill="none" stroke="black" d="M75.39,-143.7C75.39,-135.98 75.39,-126.71 75.39,-118.11"/>
<polygon fill="black" stroke="black" points="78.89,-118.1 75.39,-108.1 71.89,-118.1 78.89,-118.1"/>
</g>
<!-- 19 -->
<g id="node20" class="node">
<title>19</title>
<ellipse fill="none" stroke="black" cx="75.39" cy="-18" rx="27" ry="18"/>
<text text-anchor="middle" x="75.39" y="-14.3" font-family="Times New Roman,serif" font-size="14.00">&#39;1&#39;</text>
</g>
<!-- 18&#45;&gt;19 -->
<g id="edge4" class="edge">
<title>18&#45;&gt;19</title>
<path fill="none" stroke="black" d="M75.39,-71.7C75.39,-63.98 75.39,-54.71 75.39,-46.11"/>
<polygon fill="black" stroke="black" points="78.89,-46.1 75.39,-36.1 71.89,-46.1 78.89,-46.1"/>
</g>
<!-- 22 -->
<g id="node23" class="node">
<title>22</title>
<ellipse fill="none" stroke="black" cx="217.39" cy="-234" rx="48.19" ry="18"/>
<text text-anchor="middle" x="217.39" y="-230.3" font-family="Times New Roman,serif" font-size="14.00">unaryExpr</text>
</g>
<!-- 21&#45;&gt;22 -->
<g id="edge13" class="edge">
<title>21&#45;&gt;22</title>
<path fill="none" stroke="black" d="M292.66,-288.76C279.05,-279.04 261.6,-266.57 246.93,-256.09"/>
<polygon fill="black" stroke="black" points="248.83,-253.15 238.66,-250.19 244.76,-258.85 248.83,-253.15"/>
</g>
<!-- 26 -->
<g id="node27" class="node">
<title>26</title>
<ellipse fill="none" stroke="black" cx="310.39" cy="-234" rx="27" ry="18"/>
<text text-anchor="middle" x="310.39" y="-230.3" font-family="Times New Roman,serif" font-size="14.00">&#39;*&#39;</text>
</g>
<!-- 21&#45;&gt;26 -->
<g id="edge14" class="edge">
<title>21&#45;&gt;26</title>
<path fill="none" stroke="black" d="M314.16,-287.7C313.61,-279.98 312.94,-270.71 312.33,-262.11"/>
<polygon fill="black" stroke="black" points="315.82,-261.83 311.62,-252.1 308.84,-262.33 315.82,-261.83"/>
</g>
<!-- 27 -->
<g id="node28" class="node">
<title>27</title>
<ellipse fill="none" stroke="black" cx="403.39" cy="-234" rx="48.19" ry="18"/>
<text text-anchor="middle" x="403.39" y="-230.3" font-family="Times New Roman,serif" font-size="14.00">unaryExpr</text>
</g>
<!-- 21&#45;&gt;27 -->
<g id="edge18" class="edge">
<title>21&#45;&gt;27</title>
<path fill="none" stroke="black" d="M336.25,-288.41C348.09,-278.99 363.06,-267.09 375.85,-256.91"/>
<polygon fill="black" stroke="black" points="378.25,-259.48 383.89,-250.51 373.89,-254 378.25,-259.48"/>
</g>
<!-- 23 -->
<g id="node24" class="node">
<title>23</title>
<ellipse fill="none" stroke="black" cx="217.39" cy="-162" rx="55.79" ry="18"/>
<text text-anchor="middle" x="217.39" y="-158.3" font-family="Times New Roman,serif" font-size="14.00">primaryExpr</text>
</g>
<!-- 22&#45;&gt;23 -->
<g id="edge12" class="edge">
<title>22&#45;&gt;23</title>
<path fill="none" stroke="black" d="M217.39,-215.7C217.39,-207.98 217.39,-198.71 217.39,-190.11"/>
<polygon fill="black" stroke="black" points="220.89,-190.1 217.39,-180.1 213.89,-190.1 220.89,-190.1"/>
</g>
<!-- 24 -->
<g id="node25" class="node">
<title>24</title>
<ellipse fill="none" stroke="black" cx="217.39" cy="-90" rx="47.39" ry="18"/>
<text text-anchor="middle" x="217.39" y="-86.3" font-family="Times New Roman,serif" font-size="14.00">literalExpr</text>
</g>
<!-- 23&#45;&gt;24 -->
<g id="edge11" class="edge">
<title>23&#45;&gt;24</title>
<path fill="none" stroke="black" d="M217.39,-143.7C217.39,-135.98 217.39,-126.71 217.39,-118.11"/>
<polygon fill="black" stroke="black" points="220.89,-118.1 217.39,-108.1 213.89,-118.1 220.89,-118.1"/>
</g>
<!-- 25 -->
<g id="node26" class="node">
<title>25</title>
<ellipse fill="none" stroke="black" cx="217.39" cy="-18" rx="27" ry="18"/>
<text text-anchor="middle" x="217.39" y="-14.3" font-family="Times New Roman,serif" font-size="14.00">&#39;2&#39;</text>
</g>
<!-- 24&#45;&gt;25 -->
<g id="edge10" class="edge">
<title>24&#45;&gt;25</title>
<path fill="none" stroke="black" d="M217.39,-71.7C217.39,-63.98 217.39,-54.71 217.39,-46.11"/>
<polygon fill="black" stroke="black" points="220.89,-46.1 217.39,-36.1 213.89,-46.1 220.89,-46.1"/>
</g>
<!-- 28 -->
<g id="node29" class="node">
<title>28</title>
<ellipse fill="none" stroke="black" cx="403.39" cy="-162" rx="55.79" ry="18"/>
<text text-anchor="middle" x="403.39" y="-158.3" font-family="Times New Roman,serif" font-size="14.00">primaryExpr</text>
</g>
<!-- 27&#45;&gt;28 -->
<g id="edge17" class="edge">
<title>27&#45;&gt;28</title>
<path fill="none" stroke="black" d="M403.39,-215.7C403.39,-207.98 403.39,-198.71 403.39,-190.11"/>
<polygon fill="black" stroke="black" points="406.89,-190.1 403.39,-180.1 399.89,-190.1 406.89,-190.1"/>
</g>
<!-- 29 -->
<g id="node30" class="node">
<title>29</title>
<ellipse fill="none" stroke="black" cx="403.39" cy="-90" rx="47.39" ry="18"/>
<text text-anchor="middle" x="403.39" y="-86.3" font-family="Times New Roman,serif" font-size="14.00">literalExpr</text>
</g>
<!-- 28&#45;&gt;29 -->
<g id="edge16" class="edge">
<title>28&#45;&gt;29</title>
<path fill="none" stroke="black" d="M403.39,-143.7C403.39,-135.98 403.39,-126.71 403.39,-118.11"/>
<polygon fill="black" stroke="black" points="406.89,-118.1 403.39,-108.1 399.89,-118.1 406.89,-118.1"/>
</g>
<!-- 30 -->
<g id="node31" class="node">
<title>30</title>
<ellipse fill="none" stroke="black" cx="403.39" cy="-18" rx="27" ry="18"/>
<text text-anchor="middle" x="403.39" y="-14.3" font-family="Times New Roman,serif" font-size="14.00">&#39;3&#39;</text>
</g>
<!-- 29&#45;&gt;30 -->
<g id="edge15" class="edge">
<title>29&#45;&gt;30</title>
<path fill="none" stroke="black" d="M403.39,-71.7C403.39,-63.98 403.39,-54.71 403.39,-46.11"/>
<polygon fill="black" stroke="black" points="406.89,-46.1 403.39,-36.1 399.89,-46.1 406.89,-46.1"/>
</g>
<!-- 33 -->
<g id="node34" class="node">
<title>33</title>
<ellipse fill="none" stroke="black" cx="434.39" cy="-1026" rx="79.09" ry="18"/>
<text text-anchor="middle" x="434.39" y="-1022.3" font-family="Times New Roman,serif" font-size="14.00">variableDeclaration</text>
</g>
<!-- 32&#45;&gt;33 -->
<g id="edge61" class="edge">
<title>32&#45;&gt;33</title>
<path fill="none" stroke="black" d="M409.38,-1080.05C413.14,-1072.09 417.7,-1062.41 421.9,-1053.51"/>
<polygon fill="black" stroke="black" points="425.15,-1054.81 426.25,-1044.28 418.82,-1051.83 425.15,-1054.81"/>
</g>
<!-- 34 -->
<g id="node35" class="node">
<title>34</title>
<ellipse fill="none" stroke="black" cx="362.39" cy="-954" rx="27" ry="18"/>
<text text-anchor="middle" x="362.39" y="-950.3" font-family="Times New Roman,serif" font-size="14.00">&#39;let&#39;</text>
</g>
<!-- 33&#45;&gt;34 -->
<g id="edge32" class="edge">
<title>33&#45;&gt;34</title>
<path fill="none" stroke="black" d="M417.33,-1008.41C407.56,-998.91 395.19,-986.88 384.66,-976.65"/>
<polygon fill="black" stroke="black" points="386.99,-974.03 377.38,-969.57 382.11,-979.05 386.99,-974.03"/>
</g>
<!-- 35 -->
<g id="node36" class="node">
<title>35</title>
<ellipse fill="none" stroke="black" cx="434.39" cy="-954" rx="27" ry="18"/>
<text text-anchor="middle" x="434.39" y="-950.3" font-family="Times New Roman,serif" font-size="14.00">&#39;b&#39;</text>
</g>
<!-- 33&#45;&gt;35 -->
<g id="edge33" class="edge">
<title>33&#45;&gt;35</title>
<path fill="none" stroke="black" d="M434.39,-1007.7C434.39,-999.98 434.39,-990.71 434.39,-982.11"/>
<polygon fill="black" stroke="black" points="437.89,-982.1 434.39,-972.1 430.89,-982.1 437.89,-982.1"/>
</g>
<!-- 36 -->
<g id="node37" class="node">
<title>36</title>
<ellipse fill="none" stroke="black" cx="521.39" cy="-954" rx="42.49" ry="18"/>
<text text-anchor="middle" x="521.39" y="-950.3" font-family="Times New Roman,serif" font-size="14.00">initializer</text>
</g>
<!-- 33&#45;&gt;36 -->
<g id="edge59" class="edge">
<title>33&#45;&gt;36</title>
<path fill="none" stroke="black" d="M455.01,-1008.41C466.8,-998.93 481.72,-986.92 494.43,-976.69"/>
<polygon fill="black" stroke="black" points="496.81,-979.27 502.41,-970.27 492.42,-973.82 496.81,-979.27"/>
</g>
<!-- 62 -->
<g id="node63" class="node">
<title>62</title>
<ellipse fill="none" stroke="black" cx="608.39" cy="-954" rx="27" ry="18"/>
<text text-anchor="middle" x="608.39" y="-950.3" font-family="Times New Roman,serif" font-size="14.00">&#39;;&#39;</text>
</g>
<!-- 33&#45;&gt;62 -->
<g id="edge60" class="edge">
<title>33&#45;&gt;62</title>
<path fill="none" stroke="black" d="M474.57,-1010.47C502.27,-1000.23 539.83,-985.92 572.39,-972 574.2,-971.23 576.06,-970.41 577.92,-969.58"/>
<polygon fill="black" stroke="black" points="579.56,-972.68 587.19,-965.33 576.64,-966.32 579.56,-972.68"/>
</g>
<!-- 37 -->
<g id="node38" class="node">
<title>37</title>
<ellipse fill="none" stroke="black" cx="521.39" cy="-882" rx="27" ry="18"/>
<text text-anchor="middle" x="521.39" y="-878.3" font-family="Times New Roman,serif" font-size="14.00">&#39;=&#39;</text>
</g>
<!-- 36&#45;&gt;37 -->
<g id="edge34" class="edge">
<title>36&#45;&gt;37</title>
<path fill="none" stroke="black" d="M521.39,-935.7C521.39,-927.98 521.39,-918.71 521.39,-910.11"/>
<polygon fill="black" stroke="black" points="524.89,-910.1 521.39,-900.1 517.89,-910.1 524.89,-910.1"/>
</g>
<!-- 38 -->
<g id="node39" class="node">
<title>38</title>
<ellipse fill="none" stroke="black" cx="620.39" cy="-882" rx="50.09" ry="18"/>
<text text-anchor="middle" x="620.39" y="-878.3" font-family="Times New Roman,serif" font-size="14.00">expression</text>
</g>
<!-- 36&#45;&gt;38 -->
<g id="edge58" class="edge">
<title>36&#45;&gt;38</title>
<path fill="none" stroke="black" d="M542.39,-938.15C556.37,-928.27 574.96,-915.12 590.48,-904.15"/>
<polygon fill="black" stroke="black" points="592.6,-906.94 598.74,-898.31 588.56,-901.22 592.6,-906.94"/>
</g>
<!-- 39 -->
<g id="node40" class="node">
<title>39</title>
<ellipse fill="none" stroke="black" cx="620.39" cy="-810" rx="68.49" ry="18"/>
<text text-anchor="middle" x="620.39" y="-806.3" font-family="Times New Roman,serif" font-size="14.00">assignmentExpr</text>
</g>
<!-- 38&#45;&gt;39 -->
<g id="edge57" class="edge">
<title>38&#45;&gt;39</title>
<path fill="none" stroke="black" d="M620.39,-863.7C620.39,-855.98 620.39,-846.71 620.39,-838.11"/>
<polygon fill="black" stroke="black" points="623.89,-838.1 620.39,-828.1 616.89,-838.1 623.89,-838.1"/>
</g>
<!-- 40 -->
<g id="node41" class="node">
<title>40</title>
<ellipse fill="none" stroke="black" cx="620.39" cy="-738" rx="68.49" ry="18"/>
<text text-anchor="middle" x="620.39" y="-734.3" font-family="Times New Roman,serif" font-size="14.00">conditionalExpr</text>
</g>
<!-- 39&#45;&gt;40 -->
<g id="edge56" class="edge">
<title>39&#45;&gt;40</title>
<path fill="none" stroke="black" d="M620.39,-791.7C620.39,-783.98 620.39,-774.71 620.39,-766.11"/>
<polygon fill="black" stroke="black" points="623.89,-766.1 620.39,-756.1 616.89,-766.1 623.89,-766.1"/>
</g>
<!-- 41 -->
<g id="node42" class="node">
<title>41</title>
<ellipse fill="none" stroke="black" cx="620.39" cy="-666" rx="61.99" ry="18"/>
<text text-anchor="middle" x="620.39" y="-662.3" font-family="Times New Roman,serif" font-size="14.00">logicalOrExpr</text>
</g>
<!-- 40&#45;&gt;41 -->
<g id="edge55" class="edge">
<title>40&#45;&gt;41</title>
<path fill="none" stroke="black" d="M620.39,-719.7C620.39,-711.98 620.39,-702.71 620.39,-694.11"/>
<polygon fill="black" stroke="black" points="623.89,-694.1 620.39,-684.1 616.89,-694.1 623.89,-694.1"/>
</g>
<!-- 42 -->
<g id="node43" class="node">
<title>42</title>
<ellipse fill="none" stroke="black" cx="620.39" cy="-594" rx="67.69" ry="18"/>
<text text-anchor="middle" x="620.39" y="-590.3" font-family="Times New Roman,serif" font-size="14.00">logicalAndExpr</text>
</g>
<!-- 41&#45;&gt;42 -->
<g id="edge54" class="edge">
<title>41&#45;&gt;42</title>
<path fill="none" stroke="black" d="M620.39,-647.7C620.39,-639.98 620.39,-630.71 620.39,-622.11"/>
<polygon fill="black" stroke="black" points="623.89,-622.1 620.39,-612.1 616.89,-622.1 623.89,-622.1"/>
</g>
<!-- 43 -->
<g id="node44" class="node">
<title>43</title>
<ellipse fill="none" stroke="black" cx="621.39" cy="-522" rx="55.79" ry="18"/>
<text text-anchor="middle" x="621.39" y="-518.3" font-family="Times New Roman,serif" font-size="14.00">equalityExpr</text>
</g>
<!-- 42&#45;&gt;43 -->
<g id="edge53" class="edge">
<title>42&#45;&gt;43</title>
<path fill="none" stroke="black" d="M620.64,-575.7C620.75,-567.98 620.88,-558.71 621.01,-550.11"/>
<polygon fill="black" stroke="black" points="624.51,-550.15 621.15,-540.1 617.51,-550.05 624.51,-550.15"/>
</g>
<!-- 44 -->
<g id="node45" class="node">
<title>44</title>
<ellipse fill="none" stroke="black" cx="621.39" cy="-450" rx="60.39" ry="18"/>
<text text-anchor="middle" x="621.39" y="-446.3" font-family="Times New Roman,serif" font-size="14.00">relationalExpr</text>
</g>
<!-- 43&#45;&gt;44 -->
<g id="edge52" class="edge">
<title>43&#45;&gt;44</title>
<path fill="none" stroke="black" d="M621.39,-503.7C621.39,-495.98 621.39,-486.71 621.39,-478.11"/>
<polygon fill="black" stroke="black" points="624.89,-478.1 621.39,-468.1 617.89,-478.1 624.89,-478.1"/>
</g>
<!-- 45 -->
<g id="node46" class="node">
<title>45</title>
<ellipse fill="none" stroke="black" cx="621.39" cy="-378" rx="56.59" ry="18"/>
<text text-anchor="middle" x="621.39" y="-374.3" font-family="Times New Roman,serif" font-size="14.00">additiveExpr</text>
</g>
<!-- 44&#45;&gt;45 -->
<g id="edge51" class="edge">
<title>44&#45;&gt;45</title>
<path fill="none" stroke="black" d="M621.39,-431.7C621.39,-423.98 621.39,-414.71 621.39,-406.11"/>
<polygon fill="black" stroke="black" points="624.89,-406.1 621.39,-396.1 617.89,-406.1 624.89,-406.1"/>
</g>
<!-- 46 -->
<g id="node47" class="node">
<title>46</title>
<ellipse fill="none" stroke="black" cx="613.39" cy="-306" rx="75.29" ry="18"/>
<text text-anchor="middle" x="613.39" y="-302.3" font-family="Times New Roman,serif" font-size="14.00">multiplicativeExpr</text>
</g>
<!-- 45&#45;&gt;46 -->
<g id="edge44" class="edge">
<title>45&#45;&gt;46</title>
<path fill="none" stroke="black" d="M619.42,-359.7C618.53,-351.98 617.47,-342.71 616.49,-334.11"/>
<polygon fill="black" stroke="black" points="619.96,-333.64 615.35,-324.1 613.01,-334.44 619.96,-333.64"/>
</g>
<!-- 56 -->
<g id="node57" class="node">
<title>56</title>
<ellipse fill="none" stroke="black" cx="733.39" cy="-306" rx="27" ry="18"/>
<text text-anchor="middle" x="733.39" y="-302.3" font-family="Times New Roman,serif" font-size="14.00">&#39;&#45;&#39;</text>
</g>
<!-- 45&#45;&gt;56 -->
<g id="edge45" class="edge">
<title>45&#45;&gt;56</title>
<path fill="none" stroke="black" d="M645.97,-361.64C663.68,-350.57 687.59,-335.63 705.92,-324.17"/>
<polygon fill="black" stroke="black" points="707.8,-327.12 714.43,-318.85 704.09,-321.19 707.8,-327.12"/>
</g>
<!-- 57 -->
<g id="node58" class="node">
<title>57</title>
<ellipse fill="none" stroke="black" cx="853.39" cy="-306" rx="75.29" ry="18"/>
<text text-anchor="middle" x="853.39" y="-302.3" font-family="Times New Roman,serif" font-size="14.00">multiplicativeExpr</text>
</g>
<!-- 45&#45;&gt;57 -->
<g id="edge50" class="edge">
<title>45&#45;&gt;57</title>
<path fill="none" stroke="black" d="M661.01,-365.05C698.95,-353.6 756.52,-336.23 798.8,-323.47"/>
<polygon fill="black" stroke="black" points="799.82,-326.82 808.38,-320.58 797.8,-320.12 799.82,-326.82"/>
</g>
<!-- 47 -->
<g id="node48" class="node">
<title>47</title>
<ellipse fill="none" stroke="black" cx="529.39" cy="-234" rx="48.19" ry="18"/>
<text text-anchor="middle" x="529.39" y="-230.3" font-family="Times New Roman,serif" font-size="14.00">unaryExpr</text>
</g>
<!-- 46&#45;&gt;47 -->
<g id="edge38" class="edge">
<title>46&#45;&gt;47</title>
<path fill="none" stroke="black" d="M593.49,-288.41C582.37,-279.15 568.37,-267.48 556.29,-257.41"/>
<polygon fill="black" stroke="black" points="558.21,-254.46 548.29,-250.75 553.73,-259.84 558.21,-254.46"/>
</g>
<!-- 51 -->
<g id="node52" class="node">
<title>51</title>
<ellipse fill="none" stroke="black" cx="622.39" cy="-234" rx="27" ry="18"/>
<text text-anchor="middle" x="622.39" y="-230.3" font-family="Times New Roman,serif" font-size="14.00">&#39;*&#39;</text>
</g>
<!-- 46&#45;&gt;51 -->
<g id="edge39" class="edge">
<title>46&#45;&gt;51</title>
<path fill="none" stroke="black" d="M615.62,-287.7C616.61,-279.98 617.8,-270.71 618.91,-262.11"/>
<polygon fill="black" stroke="black" points="622.39,-262.47 620.19,-252.1 615.45,-261.58 622.39,-262.47"/>
</g>
<!-- 52 -->
<g id="node53" class="node">
<title>52</title>
<ellipse fill="none" stroke="black" cx="715.39" cy="-234" rx="48.19" ry="18"/>
<text text-anchor="middle" x="715.39" y="-230.3" font-family="Times New Roman,serif" font-size="14.00">unaryExpr</text>
</g>
<!-- 46&#45;&gt;52 -->
<g id="edge43" class="edge">
<title>46&#45;&gt;52</title>
<path fill="none" stroke="black" d="M637.05,-288.76C651.22,-279.04 669.38,-266.57 684.66,-256.09"/>
<polygon fill="black" stroke="black" points="687,-258.73 693.26,-250.19 683.04,-252.96 687,-258.73"/>
</g>
<!-- 48 -->
<g id="node49" class="node">
<title>48</title>
<ellipse fill="none" stroke="black" cx="533.39" cy="-162" rx="55.79" ry="18"/>
<text text-anchor="middle" x="533.39" y="-158.3" font-family="Times New Roman,serif" font-size="14.00">primaryExpr</text>
</g>
<!-- 47&#45;&gt;48 -->
<g id="edge37" class="edge">
<title>47&#45;&gt;48</title>
<path fill="none" stroke="black" d="M530.38,-215.7C530.82,-207.98 531.35,-198.71 531.84,-190.11"/>
<polygon fill="black" stroke="black" points="535.34,-190.29 532.42,-180.1 528.35,-189.89 535.34,-190.29"/>
</g>
<!-- 49 -->
<g id="node50" class="node">
<title>49</title>
<ellipse fill="none" stroke="black" cx="533.39" cy="-90" rx="47.39" ry="18"/>
<text text-anchor="middle" x="533.39" y="-86.3" font-family="Times New Roman,serif" font-size="14.00">literalExpr</text>
</g>
<!-- 48&#45;&gt;49 -->
<g id="edge36" class="edge">
<title>48&#45;&gt;49</title>
<path fill="none" stroke="black" d="M533.39,-143.7C533.39,-135.98 533.39,-126.71 533.39,-118.11"/>
<polygon fill="black" stroke="black" points="536.89,-118.1 533.39,-108.1 529.89,-118.1 536.89,-118.1"/>
</g>
<!-- 50 -->
<g id="node51" class="node">
<title>50</title>
<ellipse fill="none" stroke="black" cx="533.39" cy="-18" rx="27" ry="18"/>
<text text-anchor="middle" x="533.39" y="-14.3" font-family="Times New Roman,serif" font-size="14.00">&#39;2&#39;</text>
</g>
<!-- 49&#45;&gt;50 -->
<g id="edge35" class="edge">
<title>49&#45;&gt;50</title>
<path fill="none" stroke="black" d="M533.39,-71.7C533.39,-63.98 533.39,-54.71 533.39,-46.11"/>
<polygon fill="black" stroke="black" points="536.89,-46.1 533.39,-36.1 529.89,-46.1 536.89,-46.1"/>
</g>
<!-- 53 -->
<g id="node54" class="node">
<title>53</title>
<ellipse fill="none" stroke="black" cx="715.39" cy="-162" rx="55.79" ry="18"/>
<text text-anchor="middle" x="715.39" y="-158.3" font-family="Times New Roman,serif" font-size="14.00">primaryExpr</text>
</g>
<!-- 52&#45;&gt;53 -->
<g id="edge42" class="edge">
<title>52&#45;&gt;53</title>
<path fill="none" stroke="black" d="M715.39,-215.7C715.39,-207.98 715.39,-198.71 715.39,-190.11"/>
<polygon fill="black" stroke="black" points="718.89,-190.1 715.39,-180.1 711.89,-190.1 718.89,-190.1"/>
</g>
<!-- 54 -->
<g id="node55" class="node">
<title>54</title>
<ellipse fill="none" stroke="black" cx="715.39" cy="-90" rx="47.39" ry="18"/>
<text text-anchor="middle" x="715.39" y="-86.3" font-family="Times New Roman,serif" font-size="14.00">literalExpr</text>
</g>
<!-- 53&#45;&gt;54 -->
<g id="edge41" class="edge">
<title>53&#45;&gt;54</title>
<path fill="none" stroke="black" d="M715.39,-143.7C715.39,-135.98 715.39,-126.71 715.39,-118.11"/>
<polygon fill="black" stroke="black" points="718.89,-118.1 715.39,-108.1 711.89,-118.1 718.89,-118.1"/>
</g>
<!-- 55 -->
<g id="node56" class="node">
<title>55</title>
<ellipse fill="none" stroke="black" cx="715.39" cy="-18" rx="27" ry="18"/>
<text text-anchor="middle" x="715.39" y="-14.3" font-family="Times New Roman,serif" font-size="14.00">&#39;4&#39;</text>
</g>
<!-- 54&#45;&gt;55 -->
<g id="edge40" class="edge">
<title>54&#45;&gt;55</title>
<path fill="none" stroke="black" d="M715.39,-71.7C715.39,-63.98 715.39,-54.71 715.39,-46.11"/>
<polygon fill="black" stroke="black" points="718.89,-46.1 715.39,-36.1 711.89,-46.1 718.89,-46.1"/>
</g>
<!-- 58 -->
<g id="node59" class="node">
<title>58</title>
<ellipse fill="none" stroke="black" cx="853.39" cy="-234" rx="48.19" ry="18"/>
<text text-anchor="middle" x="853.39" y="-230.3" font-family="Times New Roman,serif" font-size="14.00">unaryExpr</text>
</g>
<!-- 57&#45;&gt;58 -->
<g id="edge49" class="edge">
<title>57&#45;&gt;58</title>
<path fill="none" stroke="black" d="M853.39,-287.7C853.39,-279.98 853.39,-270.71 853.39,-262.11"/>
<polygon fill="black" stroke="black" points="856.89,-262.1 853.39,-252.1 849.89,-262.1 856.89,-262.1"/>
</g>
<!-- 59 -->
<g id="node60" class="node">
<title>59</title>
<ellipse fill="none" stroke="black" cx="853.39" cy="-162" rx="55.79" ry="18"/>
<text text-anchor="middle" x="853.39" y="-158.3" font-family="Times New Roman,serif" font-size="14.00">primaryExpr</text>
</g>
<!-- 58&#45;&gt;59 -->
<g id="edge48" class="edge">
<title>58&#45;&gt;59</title>
<path fill="none" stroke="black" d="M853.39,-215.7C853.39,-207.98 853.39,-198.71 853.39,-190.11"/>
<polygon fill="black" stroke="black" points="856.89,-190.1 853.39,-180.1 849.89,-190.1 856.89,-190.1"/>
</g>
<!-- 60 -->
<g id="node61" class="node">
<title>60</title>
<ellipse fill="none" stroke="black" cx="853.39" cy="-90" rx="47.39" ry="18"/>
<text text-anchor="middle" x="853.39" y="-86.3" font-family="Times New Roman,serif" font-size="14.00">literalExpr</text>
</g>
<!-- 59&#45;&gt;60 -->
<g id="edge47" class="edge">
<title>59&#45;&gt;60</title>
<path fill="none" stroke="black" d="M853.39,-143.7C853.39,-135.98 853.39,-126.71 853.39,-118.11"/>
<polygon fill="black" stroke="black" points="856.89,-118.1 853.39,-108.1 849.89,-118.1 856.89,-118.1"/>
</g>
<!-- 61 -->
<g id="node62" class="node">
<title>61</title>
<ellipse fill="none" stroke="black" cx="853.39" cy="-18" rx="27" ry="18"/>
<text text-anchor="middle" x="853.39" y="-14.3" font-family="Times New Roman,serif" font-size="14.00">&#39;1&#39;</text>
</g>
<!-- 60&#45;&gt;61 -->
<g id="edge46" class="edge">
<title>60&#45;&gt;61</title>
<path fill="none" stroke="black" d="M853.39,-71.7C853.39,-63.98 853.39,-54.71 853.39,-46.11"/>
<polygon fill="black" stroke="black" points="856.89,-46.1 853.39,-36.1 849.89,-46.1 856.89,-46.1"/>
</g>
</g>
</svg>
